<svg xmlns="http://www.w3.org/2000/svg" xmlns:xlink="http://www.w3.org/1999/xlink" id="Layer_1" x="0px" y="0px" viewBox="0 0 1890.1 244.5" style="enable-background:new 0 0 1890.1 244.5;" xml:space="preserve" width="1890.0999755859375" height="244.5"><style type="text/css">	.st0{fill:none;}	.st1{fill:#FFFFFF;}	.st2{fill:#034EA2;}	.st3{fill:#FFF100;}	.st4{fill:#2C3161;}	.st5{fill:#0087FC;}	.st6{fill:#164194;}	.st7{fill:#FAEA27;}	.st8{clip-path:url(#SVGID_00000031189942703524028310000003268334602920712336_);fill:#034EA2;}	.st9{fill:#252D62;}</style><g>	<g>		<path class="st1" d="M937.3,90.7c0.3-0.3,0.8-0.5,1.2-0.5h17c0.5,0,0.9,0.2,1.2,0.5c0.3,0.3,0.5,0.8,0.5,1.2v98.3    c0,0.5-0.2,0.9-0.5,1.2c-0.3,0.3-0.8,0.5-1.2,0.5h-16.4c-1,0-1.6-0.4-2.1-1.1l-37.6-62.2c-0.2-0.3-0.4-0.4-0.6-0.4    c-0.2,0-0.3,0.3-0.3,0.6l0.3,61.3c0,0.5-0.2,0.9-0.5,1.2c-0.3,0.3-0.8,0.5-1.2,0.5h-17c-0.5,0-0.9-0.2-1.2-0.5    c-0.3-0.3-0.5-0.8-0.5-1.2V91.9c0-0.5,0.2-0.9,0.5-1.2c0.3-0.3,0.8-0.5,1.2-0.5h16.4c1,0,1.6,0.4,2.1,1.1l37.5,61.9    c0.2,0.3,0.4,0.4,0.6,0.4c0.2,0,0.3-0.3,0.3-0.6l-0.2-61.1C936.8,91.4,937,90.9,937.3,90.7L937.3,90.7z"/>		<path class="st1" d="M996.6,188.7c-5.7-2.9-10.1-7-13.2-12.3c-3.1-5.3-4.7-11.4-4.7-18.2V91.9c0-0.5,0.2-0.9,0.5-1.2    c0.3-0.3,0.8-0.5,1.2-0.5h17c0.5,0,0.9,0.2,1.2,0.5c0.3,0.3,0.5,0.8,0.5,1.2v66.4c0,5.1,1.6,9.3,4.7,12.5    c3.1,3.1,7.3,4.7,12.5,4.7c5.1,0,9.3-1.6,12.5-4.7s4.7-7.3,4.7-12.5V91.9c0-0.5,0.2-0.9,0.5-1.2c0.3-0.3,0.8-0.5,1.2-0.5h17    c0.5,0,0.9,0.2,1.2,0.5s0.5,0.8,0.5,1.2v66.3c0,6.9-1.6,12.9-4.7,18.2c-3.1,5.3-7.6,9.4-13.2,12.3c-5.7,2.9-12.2,4.4-19.7,4.4    C1008.9,193.1,1002.3,191.6,996.6,188.7z"/>		<path class="st1" d="M1075.7,139.8c-0.3-0.3-0.5-0.8-0.5-1.2V40.3c0-0.5,0.2-0.9,0.5-1.2c0.3-0.3,0.8-0.5,1.2-0.5h36.3    c7.3,0,13.6,1.3,19.1,3.8c5.5,2.5,9.7,6.2,12.7,10.8c3,4.7,4.5,10,4.5,16.1v40.1c0,6.1-1.5,11.5-4.5,16.1    c-3,4.7-7.3,8.3-12.7,10.8c-5.5,2.5-11.9,3.8-19.1,3.8H1077C1076.5,140.3,1076.1,140.2,1075.7,139.8z M1096.5,122.8h17.6    c4.4,0,8.1-1.5,10.8-4.5c2.8-3,4.2-7,4.3-12.1V72.7c0-5-1.4-9-4.2-12.1c-2.8-3-6.4-4.5-11.1-4.5h-17.4c-0.5,0-0.7,0.2-0.7,0.7V122    C1095.8,122.5,1096,122.7,1096.5,122.8L1096.5,122.8z"/>		<path class="st1" d="M1165.7,191.4c-0.3-0.3-0.5-0.8-0.5-1.2v-15.7c0-0.8,0.2-1.5,0.7-2.2l46.9-63.7c0,0,0.2-0.4,0.1-0.6    c-0.2-0.2-0.4-0.3-0.6-0.3h-45.4c-0.5,0-0.9-0.2-1.2-0.5c-0.3-0.3-0.5-0.8-0.5-1.2V91.9c0-0.5,0.2-0.9,0.5-1.2    c0.3-0.3,0.8-0.5,1.2-0.5h67.3c0.5,0,0.9,0.2,1.2,0.5c0.3,0.3,0.5,0.8,0.5,1.2v15.7c0,0.8-0.3,1.5-0.7,2.2l-46.9,63.7    c0,0-0.1,0.4,0,0.6s0.3,0.3,0.6,0.3h45.4c0.5,0,0.9,0.2,1.2,0.5c0.3,0.3,0.5,0.8,0.5,1.2v14.1c0,0.5-0.2,0.9-0.5,1.2    s-0.8,0.5-1.2,0.5H1167C1166.5,191.9,1166,191.7,1165.7,191.4z"/>	</g>	<g>		<path class="st1" d="M1300.7,88c0,0,0.3-0.2,0.5-0.2h6.9c0,0,0.4,0.1,0.5,0.2c0.2,0.2,0.2,0.3,0.2,0.5v39.8c0,0-0.1,0.4-0.2,0.5    c-0.2,0.2-0.3,0.2-0.5,0.2h-6.7c-0.4,0-0.6-0.2-0.8-0.5l-15.3-25.2c0,0-0.2-0.2-0.2-0.2c-0.1,0-0.1,0.1-0.1,0.3l0.1,24.9    c0,0-0.1,0.4-0.2,0.5c-0.2,0.2-0.3,0.2-0.5,0.2h-6.9c0,0-0.4-0.1-0.5-0.2c-0.2-0.2-0.2-0.3-0.2-0.5V88.4c0,0,0.1-0.4,0.2-0.5    c0.2-0.2,0.3-0.2,0.5-0.2h6.7c0.4,0,0.6,0.2,0.8,0.5l15.2,25.1c0,0,0.2,0.2,0.2,0.2s0.1-0.1,0.1-0.3V88.4    C1300.6,88.4,1300.6,88.1,1300.7,88z"/>		<path class="st1" d="M1342.7,128.4l-1.8-5.8c0,0-0.2-0.2-0.3-0.2h-14.5c0,0-0.2,0.1-0.3,0.2l-1.7,5.8c-0.1,0.4-0.4,0.6-0.8,0.6    h-7.5c0,0-0.4-0.1-0.5-0.2s-0.2-0.3-0.1-0.6l12.7-39.8c0.1-0.4,0.4-0.6,0.8-0.6h9.3c0.4,0,0.6,0.2,0.8,0.6l12.7,39.8    c0,0,0.1,0.2,0.1,0.3c0,0.4-0.2,0.5-0.6,0.5h-7.5C1343,129,1342.8,128.8,1342.7,128.4z M1328.1,116h10.4c0,0,0.3-0.1,0.2-0.4    l-5.3-17.5c0,0-0.1-0.2-0.2-0.2c-0.1,0-0.2,0.1-0.2,0.2l-5.2,17.5C1327.9,115.6,1327.9,116,1328.1,116z M1329.4,83.8    c0,0-0.1-0.4,0.1-0.6l3.1-6c0.2-0.4,0.4-0.5,0.9-0.5h6c0.3,0,0.5,0.1,0.5,0.3c0.1,0.2,0.1,0.4-0.1,0.6l-4.2,6    c-0.2,0.3-0.5,0.5-0.8,0.5h-4.9C1329.7,84.1,1329.6,84,1329.4,83.8z"/>		<path class="st1" d="M1379.7,128.5l-7.4-16.4c0,0-0.2-0.2-0.4-0.2h-5.5c0,0-0.3,0.1-0.3,0.3v16.1c0,0-0.1,0.4-0.2,0.5    c-0.2,0.2-0.3,0.2-0.5,0.2h-6.9c0,0-0.4-0.1-0.5-0.2c-0.2-0.2-0.2-0.3-0.2-0.5V88.4c0,0,0.1-0.4,0.2-0.5c0.2-0.2,0.3-0.2,0.5-0.2    h16.8c2.5,0,4.7,0.5,6.6,1.5c1.9,1,3.4,2.5,4.4,4.4c1,1.9,1.6,4.1,1.6,6.6c0,2.7-0.6,5-2,6.9c-1.4,1.9-3.2,3.2-5.6,4.1    c-0.2,0.1-0.3,0.2-0.2,0.4l8,16.7c0,0,0.1,0.3,0.1,0.4c0,0.3-0.2,0.5-0.6,0.5h-7.3C1380.2,129.1,1380,128.9,1379.7,128.5    L1379.7,128.5z M1366.3,95.2v10.1c0,0,0.1,0.3,0.3,0.3h7.7c1.6,0,3-0.5,4.1-1.5c1-1,1.6-2.3,1.6-3.8s-0.5-2.9-1.6-3.8    c-1-1-2.4-1.5-4.1-1.5h-7.7C1366.5,94.8,1366.3,94.9,1366.3,95.2L1366.3,95.2z"/>		<path class="st1" d="M1401.9,127.8c-2.3-1.2-4.2-3-5.5-5.3c-1.3-2.2-1.9-4.9-1.9-7.8v-12.6c0-2.9,0.6-5.5,1.9-7.7    c1.3-2.3,3.1-4,5.5-5.2c2.3-1.2,5-1.8,8.1-1.8c3.1,0,5.8,0.6,8.2,1.8c2.3,1.2,4.2,3,5.5,5.2c1.3,2.2,1.9,4.8,1.9,7.7v12.6    c0,2.9-0.6,5.6-1.9,7.9c-1.3,2.3-3.1,4.1-5.5,5.3c-2.3,1.2-5,1.8-8.2,1.8C1406.9,129.6,1404.2,129,1401.9,127.8z M1415.3,120.4    c1.4-1.4,2-3.2,2-5.5V102c0-2.3-0.6-4.1-1.9-5.5c-1.3-1.4-3.1-2.1-5.3-2.1c-2.2,0-3.9,0.7-5.2,2.1c-1.3,1.4-1.9,3.2-1.9,5.5V115    c0,2.3,0.6,4.1,1.9,5.5s3,2.1,5.2,2.1C1412.2,122.5,1414,121.8,1415.3,120.4L1415.3,120.4z"/>		<path class="st1" d="M1433.3,128.8c0,0-0.2-0.3-0.2-0.5V88.4c0,0,0.1-0.4,0.2-0.5c0.2-0.2,0.3-0.2,0.5-0.2h14.7    c2.9,0,5.5,0.5,7.7,1.6c2.2,1,4,2.5,5.1,4.4c1.2,1.9,1.8,4.1,1.8,6.6v16.2c0,2.5-0.6,4.7-1.8,6.6c-1.2,1.9-2.9,3.4-5.1,4.4    c-2.2,1-4.8,1.6-7.7,1.6h-14.7C1433.8,129,1433.4,128.9,1433.3,128.8z M1441.7,121.9h7.1c1.8,0,3.2-0.6,4.4-1.8    c1.1-1.2,1.7-2.9,1.7-4.9v-13.5c0-2.1-0.5-3.7-1.7-4.9c-1.1-1.2-2.6-1.8-4.5-1.8h-7.1c0,0-0.3,0.1-0.3,0.3v26.4    C1441.4,121.6,1441.5,121.9,1441.7,121.9z"/>		<path class="st1" d="M1494.6,88c0,0,0.3-0.2,0.5-0.2h6.9c0,0,0.4,0.1,0.5,0.2c0.2,0.2,0.2,0.3,0.2,0.5v39.8c0,0-0.1,0.4-0.2,0.5    c-0.2,0.2-0.3,0.2-0.5,0.2h-6.7c-0.4,0-0.6-0.2-0.8-0.5l-15.3-25.2c0,0-0.2-0.2-0.2-0.2s-0.1,0.1-0.1,0.3l0.1,24.9    c0,0-0.1,0.4-0.2,0.5c-0.2,0.2-0.3,0.2-0.5,0.2h-6.9c0,0-0.4-0.1-0.5-0.2c-0.2-0.2-0.2-0.3-0.2-0.5V88.4c0,0,0.1-0.4,0.2-0.5    c0.2-0.2,0.3-0.2,0.5-0.2h6.7c0.4,0,0.6,0.2,0.8,0.5l15.2,25.1c0,0,0.2,0.2,0.2,0.2s0.1-0.1,0.1-0.3V88.4    C1494.4,88.4,1494.4,88.1,1494.6,88L1494.6,88z"/>		<path class="st1" d="M1511.3,128.8c0,0-0.2-0.3-0.2-0.5V88.4c0,0,0.1-0.4,0.2-0.5c0.2-0.2,0.3-0.2,0.5-0.2h6.9    c0,0,0.4,0.1,0.5,0.2c0.2,0.2,0.2,0.3,0.2,0.5v39.8c0,0-0.1,0.4-0.2,0.5c-0.2,0.2-0.3,0.2-0.5,0.2h-6.9    C1511.7,129,1511.4,128.9,1511.3,128.8z M1511.4,83.8c0,0-0.1-0.4,0.1-0.6l3.1-6c0.2-0.4,0.4-0.5,0.9-0.5h6c0.3,0,0.5,0.1,0.5,0.3    c0.1,0.2,0.1,0.4-0.1,0.6l-4.2,6c-0.2,0.3-0.5,0.5-0.8,0.5h-4.9C1511.7,84.1,1511.5,84,1511.4,83.8z"/>		<path class="st1" d="M1547.7,127.7c-2.3-1.2-4.1-2.8-5.4-5c-1.3-2.2-1.9-4.6-1.9-7.4V88.4c0,0,0.1-0.4,0.2-0.5    c0.2-0.1,0.3-0.2,0.5-0.2h6.9c0,0,0.4,0.1,0.5,0.2c0.2,0.2,0.2,0.3,0.2,0.5v26.9c0,2.1,0.6,3.7,1.9,5c1.3,1.3,3,1.9,5,1.9    s3.7-0.6,5-1.9c1.3-1.3,1.9-3,1.9-5V88.4c0,0,0.1-0.4,0.2-0.5c0.2-0.1,0.3-0.2,0.5-0.2h6.9c0,0,0.4,0.1,0.5,0.2    c0.2,0.2,0.2,0.3,0.2,0.5v26.9c0,2.8-0.6,5.3-1.9,7.4c-1.3,2.2-3.1,3.8-5.4,5c-2.3,1.2-5,1.8-8,1.8s-5.7-0.6-8-1.8H1547.7z     M1551.9,83.8c0,0-0.1-0.4,0.1-0.6l3.1-6c0.2-0.4,0.4-0.5,0.9-0.5h6c0.3,0,0.5,0.1,0.5,0.3s0.1,0.4-0.1,0.6l-4.2,6    c-0.2,0.3-0.5,0.5-0.8,0.5h-4.9C1552.1,84.1,1552,84,1551.9,83.8z"/>		<path class="st1" d="M1584.8,128c-2.4-1-4.2-2.4-5.5-4.3c-1.3-1.8-1.9-4.1-1.9-6.5v-1.3c0,0,0.1-0.4,0.2-0.5    c0.2-0.2,0.3-0.2,0.5-0.2h6.7c0,0,0.4,0.1,0.5,0.2c0.1,0.2,0.2,0.3,0.2,0.5v0.9c0,1.6,0.7,2.9,2.2,4c1.5,1.1,3.4,1.6,5.9,1.6    c2.1,0,3.6-0.4,4.7-1.3c1-0.9,1.5-1.9,1.5-3.2c0-0.9-0.3-1.7-0.9-2.4c-0.6-0.6-1.5-1.2-2.5-1.7c-1.1-0.5-2.8-1.2-5.1-2.1    c-2.7-0.9-4.9-1.8-6.7-2.8c-1.8-0.9-3.4-2.2-4.6-3.8c-1.2-1.6-1.8-3.6-1.8-6.1s0.6-4.4,1.8-6.2c1.2-1.8,2.9-3.1,5.1-4.1    c2.2-0.9,4.7-1.4,7.5-1.4c3,0,5.6,0.5,8,1.6c2.3,1.1,4.2,2.5,5.5,4.4c1.3,1.9,1.9,4.1,1.9,6.6v0.9c0,0-0.1,0.4-0.2,0.5    c-0.2,0.1-0.3,0.2-0.5,0.2h-6.8c0,0-0.4-0.1-0.5-0.2c-0.2-0.2-0.2-0.3-0.2-0.5v-0.5c0-1.6-0.7-3-2.1-4.2c-1.4-1.1-3.2-1.7-5.6-1.7    c-1.8,0-3.3,0.4-4.3,1.2s-1.6,1.8-1.6,3.2c0,1,0.3,1.8,0.9,2.5c0.6,0.6,1.5,1.2,2.7,1.8s3,1.2,5.6,2.2c2.8,1,5,1.9,6.6,2.7    c1.6,0.8,3,1.9,4.3,3.5c1.3,1.6,1.9,3.6,1.9,6.1c0,3.7-1.4,6.6-4.1,8.8c-2.7,2.2-6.4,3.2-11,3.2    C1589.9,129.5,1587.1,129,1584.8,128L1584.8,128z"/>		<path class="st1" d="M1643.7,88c0,0,0.2,0.3,0.2,0.5v5.8c0,0-0.1,0.4-0.2,0.5c-0.2,0.1-0.3,0.2-0.5,0.2h-10.6c0,0-0.3,0.1-0.3,0.3    v33.1c0,0-0.1,0.4-0.2,0.5c-0.2,0.1-0.3,0.2-0.5,0.2h-6.9c0,0-0.4-0.1-0.5-0.2c-0.2-0.2-0.2-0.3-0.2-0.5V95.2c0,0-0.1-0.3-0.3-0.3    h-10.2c0,0-0.4-0.1-0.5-0.2c-0.2-0.2-0.2-0.3-0.2-0.5v-5.8c0,0,0.1-0.4,0.2-0.5c0.2-0.2,0.3-0.2,0.5-0.2h29.7c0,0,0.4,0.1,0.5,0.2    H1643.7z"/>		<path class="st1" d="M1672.1,128.4l-1.8-5.8c0,0-0.2-0.2-0.3-0.2h-14.5c0,0-0.2,0.1-0.3,0.2l-1.7,5.8c-0.1,0.4-0.4,0.6-0.8,0.6    h-7.5c0,0-0.4-0.1-0.5-0.2s-0.2-0.3-0.1-0.6l12.7-39.8c0.1-0.4,0.4-0.6,0.8-0.6h9.3c0.4,0,0.6,0.2,0.8,0.6l12.7,39.8    c0,0,0.1,0.2,0.1,0.3c0,0.4-0.2,0.5-0.6,0.5h-7.5C1672.4,129,1672.2,128.8,1672.1,128.4z M1657.5,116h10.4c0,0,0.3-0.1,0.2-0.4    l-5.3-17.5c0,0-0.1-0.2-0.2-0.2c-0.1,0-0.2,0.1-0.2,0.2l-5.2,17.5C1657.3,115.6,1657.3,116,1657.5,116L1657.5,116z"/>		<path class="st1" d="M1696.4,128.4l-12.1-39.8v-0.2c-0.1-0.4,0.2-0.6,0.6-0.6h7.4c0.4,0,0.7,0.2,0.8,0.6l7.9,28.7    c0,0,0.1,0.2,0.2,0.2c0.1,0,0.2-0.1,0.2-0.2l7.7-28.7c0.1-0.4,0.4-0.6,0.8-0.6h7.3c0,0,0.4,0.1,0.5,0.2c0.1,0.2,0.2,0.4,0.1,0.6    l-12.3,39.8c-0.1,0.4-0.4,0.6-0.8,0.6h-7.4C1696.8,129,1696.5,128.8,1696.4,128.4L1696.4,128.4z"/>		<path class="st1" d="M1277,191.3c0,0-0.2-0.3-0.2-0.5V151c0,0,0.1-0.4,0.2-0.5c0.2-0.2,0.3-0.2,0.5-0.2h14.7    c2.9,0,5.5,0.5,7.7,1.6c2.2,1,4,2.5,5.1,4.4c1.2,1.9,1.8,4.1,1.8,6.6V179c0,2.5-0.6,4.7-1.8,6.6s-2.9,3.4-5.1,4.4    c-2.2,1-4.8,1.6-7.7,1.6h-14.7C1277.5,191.5,1277.1,191.5,1277,191.3z M1285.4,184.4h7.1c1.8,0,3.2-0.6,4.4-1.8    c1.1-1.2,1.7-2.9,1.7-4.9v-13.5c0-2.1-0.5-3.7-1.7-4.9s-2.6-1.8-4.5-1.8h-7.1c0,0-0.3,0.1-0.3,0.3v26.4    C1285.2,184.1,1285.3,184.4,1285.4,184.4z"/>		<path class="st1" d="M1321.4,190.2c-2.3-1.2-4.1-2.8-5.4-5c-1.3-2.2-1.9-4.6-1.9-7.4V151c0,0,0.1-0.4,0.2-0.5    c0.2-0.1,0.3-0.2,0.5-0.2h6.9c0,0,0.4,0.1,0.5,0.2c0.2,0.2,0.2,0.3,0.2,0.5v26.9c0,2.1,0.6,3.7,1.9,5c1.3,1.3,3,1.9,5,1.9    s3.7-0.6,5-1.9c1.3-1.3,1.9-3,1.9-5V151c0,0,0.1-0.4,0.2-0.5s0.3-0.2,0.5-0.2h6.9c0,0,0.4,0.1,0.5,0.2c0.2,0.2,0.2,0.3,0.2,0.5    v26.9c0,2.8-0.6,5.3-1.9,7.4c-1.3,2.2-3.1,3.8-5.4,5c-2.3,1.2-5,1.8-8,1.8s-5.7-0.6-8-1.8H1321.4z"/>		<path class="st1" d="M1358.6,190.5c-2.4-1-4.2-2.4-5.5-4.3c-1.3-1.8-1.9-4.1-1.9-6.5v-1.3c0,0,0.1-0.4,0.2-0.5    c0.2-0.2,0.3-0.2,0.5-0.2h6.7c0,0,0.4,0.1,0.5,0.2s0.2,0.3,0.2,0.5v0.9c0,1.6,0.7,2.9,2.2,4c1.5,1.1,3.4,1.6,5.9,1.6    c2.1,0,3.6-0.4,4.7-1.3c1-0.9,1.5-1.9,1.5-3.2c0-0.9-0.3-1.7-0.9-2.4c-0.6-0.6-1.5-1.2-2.5-1.7c-1.1-0.5-2.8-1.2-5.1-2.1    c-2.7-0.9-4.9-1.8-6.7-2.8c-1.8-0.9-3.4-2.2-4.6-3.8s-1.8-3.6-1.8-6.1s0.6-4.4,1.8-6.2c1.2-1.8,2.9-3.1,5.1-4.1    c2.2-0.9,4.7-1.4,7.5-1.4c3,0,5.6,0.5,8,1.6c2.3,1.1,4.2,2.5,5.5,4.4s1.9,4.1,1.9,6.6v0.9c0,0-0.1,0.4-0.2,0.5    c-0.2,0.1-0.3,0.2-0.5,0.2h-6.8c0,0-0.4-0.1-0.5-0.2c-0.2-0.2-0.2-0.3-0.2-0.5v-0.5c0-1.6-0.7-3-2.1-4.2c-1.4-1.1-3.2-1.7-5.6-1.7    c-1.8,0-3.3,0.4-4.3,1.2c-1,0.8-1.6,1.8-1.6,3.2c0,1,0.3,1.8,0.9,2.5c0.6,0.6,1.5,1.2,2.7,1.8c1.2,0.5,3,1.2,5.6,2.2    c2.8,1,5,1.9,6.6,2.7c1.6,0.8,3,1.9,4.3,3.5c1.3,1.6,1.9,3.6,1.9,6.1c0,3.7-1.4,6.6-4.1,8.8c-2.7,2.2-6.4,3.2-11,3.2    C1363.6,192,1360.8,191.5,1358.6,190.5L1358.6,190.5z M1357.5,139.8c0-0.3,0.2-0.5,0.6-0.5h5.3c0.4,0,0.6,0.2,0.8,0.5l2.4,3.6    c0,0,0.2,0.2,0.4,0l2.4-3.6c0.2-0.3,0.5-0.5,0.8-0.5h5.3c0.3,0,0.5,0.1,0.6,0.3c0.1,0.2,0,0.4-0.1,0.6l-4.5,6.2    c-0.2,0.3-0.5,0.4-0.8,0.4h-7.9c-0.4,0-0.6-0.2-0.8-0.5l-4.3-6.2c0,0-0.1-0.3-0.1-0.4L1357.5,139.8z"/>		<path class="st1" d="M1417.4,157.2c0,0-0.3,0.2-0.5,0.2h-19.3c0,0-0.3,0.1-0.3,0.3v9.2c0,0,0.1,0.3,0.3,0.3h12.7    c0,0,0.4,0.1,0.5,0.2s0.2,0.3,0.2,0.5v5.7c0,0-0.1,0.4-0.2,0.5c-0.2,0.2-0.3,0.2-0.5,0.2h-12.7c0,0-0.3,0.1-0.3,0.3v9.5    c0,0,0.1,0.3,0.3,0.3h19.3c0,0,0.4,0.1,0.5,0.2c0.2,0.2,0.2,0.3,0.2,0.5v5.7c0,0-0.1,0.4-0.2,0.5c-0.2,0.1-0.3,0.2-0.5,0.2h-27.2    c0,0-0.4-0.1-0.5-0.2c-0.2-0.2-0.2-0.3-0.2-0.5v-39.8c0,0,0.1-0.4,0.2-0.5c0.2-0.2,0.3-0.2,0.5-0.2h27.2c0,0,0.4,0.1,0.5,0.2    c0.2,0.2,0.2,0.3,0.2,0.5v5.7C1417.6,156.7,1417.5,157,1417.4,157.2L1417.4,157.2z"/>		<path class="st1" d="M1435.1,190.9l-12.1-39.8v-0.2c-0.1-0.4,0.2-0.6,0.6-0.6h7.4c0.4,0,0.7,0.2,0.8,0.6l7.9,28.7    c0,0,0.1,0.2,0.2,0.2s0.2-0.1,0.2-0.2l7.7-28.7c0.1-0.4,0.4-0.6,0.8-0.6h7.3c0,0,0.4,0.1,0.5,0.2c0.1,0.2,0.2,0.4,0.1,0.6    l-12.3,39.8c-0.1,0.4-0.4,0.6-0.8,0.6h-7.4C1435.5,191.5,1435.2,191.3,1435.1,190.9z"/>		<path class="st1" d="M1486.3,150.5c0,0,0.3-0.2,0.5-0.2h6.9c0,0,0.4,0.1,0.5,0.2c0.2,0.2,0.2,0.3,0.2,0.5v39.8    c0,0-0.1,0.4-0.2,0.5c-0.2,0.2-0.3,0.2-0.5,0.2h-6.7c-0.4,0-0.6-0.2-0.8-0.5l-15.3-25.2c0,0-0.2-0.2-0.2-0.2    c-0.1,0-0.1,0.1-0.1,0.3l0.1,24.9c0,0-0.1,0.4-0.2,0.5c-0.2,0.2-0.3,0.2-0.5,0.2h-6.9c0,0-0.4-0.1-0.5-0.2    c-0.2-0.2-0.2-0.3-0.2-0.5v-39.8c0,0,0.1-0.4,0.2-0.5c0.2-0.2,0.3-0.2,0.5-0.2h6.7c0.4,0,0.6,0.2,0.8,0.5l15.2,25.1    c0,0,0.2,0.2,0.2,0.2s0.1-0.1,0.1-0.3V151C1486.1,151,1486.1,150.6,1486.3,150.5L1486.3,150.5z"/>		<path class="st1" d="M1503,191.3c0,0-0.2-0.3-0.2-0.5V151c0,0,0.1-0.4,0.2-0.5c0.2-0.2,0.3-0.2,0.5-0.2h6.9c0,0,0.4,0.1,0.5,0.2    c0.2,0.2,0.2,0.3,0.2,0.5v39.8c0,0-0.1,0.4-0.2,0.5c-0.2,0.2-0.3,0.2-0.5,0.2h-6.9C1503.5,191.5,1503.1,191.5,1503,191.3z     M1503.1,146.4c0,0-0.1-0.4,0.1-0.6l3.1-6c0.2-0.4,0.4-0.5,0.9-0.5h6c0.3,0,0.5,0.1,0.5,0.3c0.1,0.2,0.1,0.4-0.1,0.6l-4.2,6    c-0.2,0.3-0.5,0.5-0.8,0.5h-4.9C1503.4,146.6,1503.2,146.5,1503.1,146.4z"/>		<path class="st1" d="M1541.6,150.5c0,0,0.3-0.2,0.5-0.2h6.9c0,0,0.4,0.1,0.5,0.2c0.2,0.2,0.2,0.3,0.2,0.5v39.8    c0,0-0.1,0.4-0.2,0.5c-0.2,0.2-0.3,0.2-0.5,0.2h-6.9c0,0-0.4-0.1-0.5-0.2c-0.2-0.2-0.2-0.3-0.2-0.5v-16.2c0,0-0.1-0.3-0.3-0.3h-13    c0,0-0.3,0.1-0.3,0.3v16.2c0,0-0.1,0.4-0.2,0.5c-0.2,0.2-0.3,0.2-0.5,0.2h-6.9c0,0-0.4-0.1-0.5-0.2c-0.2-0.2-0.2-0.3-0.2-0.5V151    c0,0,0.1-0.4,0.2-0.5c0.2-0.2,0.3-0.2,0.5-0.2h6.9c0,0,0.4,0.1,0.5,0.2c0.2,0.2,0.2,0.3,0.2,0.5v15.9c0,0,0.1,0.3,0.3,0.3h13    c0,0,0.3-0.1,0.3-0.3V151C1541.4,151,1541.4,150.6,1541.6,150.5z"/>		<path class="st1" d="M1564.2,190.3c-2.3-1.2-4.2-3-5.5-5.3c-1.3-2.2-1.9-4.9-1.9-7.8v-12.6c0-2.9,0.6-5.5,1.9-7.7    c1.3-2.3,3.1-4,5.5-5.2s5-1.8,8.1-1.8s5.8,0.6,8.2,1.8s4.2,3,5.5,5.2c1.3,2.2,1.9,4.8,1.9,7.7v12.6c0,2.9-0.6,5.6-1.9,7.9    c-1.3,2.3-3.1,4.1-5.5,5.3c-2.3,1.2-5,1.8-8.2,1.8C1569.2,192.2,1566.5,191.5,1564.2,190.3z M1577.6,183c1.4-1.4,2-3.2,2-5.5    v-12.9c0-2.3-0.6-4.1-1.9-5.5c-1.3-1.4-3.1-2.1-5.3-2.1s-3.9,0.7-5.2,2.1s-1.9,3.2-1.9,5.5v12.9c0,2.3,0.6,4.1,1.9,5.5    c1.3,1.4,3,2.1,5.2,2.1S1576.3,184.3,1577.6,183L1577.6,183z"/>		<path class="st1" d="M1606.9,191.3c0,0-0.2-0.3-0.2-0.5v-6.4c0-0.3,0.1-0.6,0.3-0.9l19.1-25.8c0,0,0.1-0.2,0-0.2    c-0.1-0.1-0.2-0.1-0.3-0.1h-18.4c0,0-0.4-0.1-0.5-0.2c-0.2-0.2-0.2-0.3-0.2-0.5V151c0,0,0.1-0.4,0.2-0.5c0.2-0.2,0.3-0.2,0.5-0.2    h27.3c0,0,0.4,0.1,0.5,0.2c0.2,0.2,0.2,0.3,0.2,0.5v6.4c0,0.3-0.1,0.6-0.3,0.9l-19.1,25.8c0,0,0,0.2,0,0.2c0,0.1,0.1,0.1,0.2,0.1    h18.4c0,0,0.4,0.1,0.5,0.2c0.2,0.2,0.2,0.3,0.2,0.5v5.7c0,0-0.1,0.4-0.2,0.5c-0.2,0.1-0.3,0.2-0.5,0.2h-27.3    C1607.3,191.5,1606.9,191.5,1606.9,191.3L1606.9,191.3z"/>		<path class="st1" d="M1642.6,191.3c0,0-0.2-0.3-0.2-0.5V151c0,0,0.1-0.4,0.2-0.5c0.2-0.2,0.3-0.2,0.5-0.2h14.7    c2.9,0,5.5,0.5,7.7,1.6c2.2,1,4,2.5,5.1,4.4c1.2,1.9,1.8,4.1,1.8,6.6V179c0,2.5-0.6,4.7-1.8,6.6s-2.9,3.4-5.1,4.4    c-2.2,1-4.8,1.6-7.7,1.6H1643C1643,191.5,1642.7,191.5,1642.6,191.3z M1650.9,184.4h7.1c1.8,0,3.2-0.6,4.4-1.8    c1.1-1.2,1.7-2.9,1.7-4.9v-13.5c0-2.1-0.5-3.7-1.7-4.9c-1.1-1.2-2.6-1.8-4.5-1.8h-7.1c0,0-0.3,0.1-0.3,0.3v26.4    C1650.7,184.1,1650.8,184.4,1650.9,184.4L1650.9,184.4z"/>		<path class="st1" d="M1701.8,191l-7.4-16.4c0,0-0.2-0.2-0.4-0.2h-5.5c0,0-0.3,0.1-0.3,0.3v16.1c0,0-0.1,0.4-0.2,0.5    c-0.2,0.2-0.3,0.2-0.5,0.2h-6.9c0,0-0.4-0.1-0.5-0.2c-0.2-0.2-0.2-0.3-0.2-0.5v-39.8c0,0,0.1-0.4,0.2-0.5c0.2-0.2,0.3-0.2,0.5-0.2    h16.8c2.5,0,4.7,0.5,6.6,1.5s3.4,2.5,4.4,4.4c1,1.9,1.6,4.1,1.6,6.6c0,2.7-0.6,5-2,6.9c-1.4,1.9-3.2,3.2-5.6,4.1    c-0.2,0.1-0.3,0.2-0.2,0.4l8,16.7c0,0,0.1,0.3,0.1,0.4c0,0.3-0.2,0.5-0.6,0.5h-7.3C1702.3,191.6,1702,191.4,1701.8,191L1701.8,191    z M1688.3,157.7v10.1c0,0,0.1,0.3,0.3,0.3h7.7c1.6,0,3-0.5,4.1-1.5c1-1,1.6-2.3,1.6-3.8c0-1.6-0.5-2.9-1.6-3.8    c-1-1-2.4-1.5-4.1-1.5h-7.7C1688.6,157.4,1688.3,157.5,1688.3,157.7L1688.3,157.7z"/>		<path class="st1" d="M1743.7,190.9l-1.8-5.8c0,0-0.2-0.2-0.3-0.2h-14.5c0,0-0.2,0.1-0.3,0.2l-1.7,5.8c-0.1,0.4-0.4,0.6-0.8,0.6    h-7.5c0,0-0.4-0.1-0.5-0.2s-0.2-0.3-0.1-0.6l12.7-39.8c0.1-0.4,0.4-0.6,0.8-0.6h9.3c0.4,0,0.6,0.2,0.8,0.6l12.7,39.8    c0,0,0.1,0.2,0.1,0.3c0,0.4-0.2,0.5-0.6,0.5h-7.5C1744.1,191.5,1743.8,191.3,1743.7,190.9z M1729.2,178.5h10.4    c0,0,0.3-0.1,0.2-0.4l-5.3-17.5c0,0-0.1-0.2-0.2-0.2c-0.1,0-0.2,0.1-0.2,0.2l-5.2,17.5C1729,178.1,1729,178.5,1729.2,178.5    L1729.2,178.5z"/>		<path class="st1" d="M1768,190.9l-12.1-39.8v-0.2c-0.1-0.4,0.2-0.6,0.6-0.6h7.4c0.4,0,0.7,0.2,0.8,0.6l7.9,28.7    c0,0,0.1,0.2,0.2,0.2c0.1,0,0.2-0.1,0.2-0.2l7.7-28.7c0.1-0.4,0.4-0.6,0.8-0.6h7.3c0,0,0.4,0.1,0.5,0.2c0.1,0.2,0.2,0.4,0.1,0.6    l-12.3,39.8c-0.1,0.4-0.4,0.6-0.8,0.6h-7.4C1768.4,191.5,1768.1,191.3,1768,190.9L1768,190.9z"/>		<path class="st1" d="M1795.9,191.3c0,0-0.2-0.3-0.2-0.5V151c0,0,0.1-0.4,0.2-0.5c0.2-0.2,0.3-0.2,0.5-0.2h6.9c0,0,0.4,0.1,0.5,0.2    c0.2,0.2,0.2,0.3,0.2,0.5v39.8c0,0-0.1,0.4-0.2,0.5c-0.2,0.2-0.3,0.2-0.5,0.2h-6.9C1796.4,191.5,1796,191.5,1795.9,191.3z     M1796,146.4c0,0-0.1-0.4,0.1-0.6l3.1-6c0.2-0.4,0.4-0.5,0.9-0.5h6c0.3,0,0.5,0.1,0.5,0.3c0.1,0.2,0.1,0.4-0.1,0.6l-4.2,6    c-0.2,0.3-0.5,0.5-0.8,0.5h-4.9C1796.3,146.6,1796.2,146.5,1796,146.4z"/>	</g></g><g>	<path class="st1" d="M788.9,125c-0.9-0.9-2.1-1.3-3.4-1.3c-1.3,0-2.5,0.4-3.4,1.3c-1,0.9-1.4,2-1.4,3.6c0,1.5,0.5,2.6,1.4,3.5   c0.9,0.9,2.1,1.3,3.4,1.3c1.3,0,2.4-0.4,3.4-1.3c1-0.9,1.4-2,1.4-3.5C790.3,127.1,789.8,125.9,788.9,125z M781.6,138.6v34h7.9v-34   H781.6z M771.2,147.1c-0.5-1.9-1.2-3.6-2.3-4.9c-1.1-1.4-2.6-2.4-4.5-3.2c-1.9-0.8-4.2-1.1-7-1.1c-2.9,0-5.6,0.2-8.1,0.6   c-2.4,0.4-4.4,0.8-5.9,1.2v32.9h7.9v-27.4c0.5-0.1,1.3-0.2,2.4-0.3s2.1-0.2,3.1-0.2c1.3,0,2.5,0.2,3.4,0.6c0.9,0.4,1.7,1,2.2,1.8   s0.9,1.8,1.2,3.1c0.2,1.3,0.4,2.8,0.4,4.7v17.9h7.9v-19.1C771.9,151.2,771.7,149,771.2,147.1z M744.3,70.2   c-0.8-2.2-1.9-4.1-3.3-5.6c-1.4-1.6-3.2-2.8-5.2-3.6c-2-0.8-4.2-1.3-6.6-1.3c-2.4,0-4.6,0.4-6.6,1.3c-2,0.8-3.7,2-5.2,3.6   s-2.6,3.4-3.4,5.6s-1.2,4.6-1.2,7.3c0,2.7,0.4,5.1,1.2,7.4c0.8,2.2,1.9,4.1,3.3,5.6c1.4,1.6,3.1,2.8,5.1,3.6c2,0.9,4.2,1.3,6.6,1.3   s4.7-0.4,6.7-1.3c2-0.9,3.7-2.1,5.2-3.6s2.5-3.4,3.3-5.6c0.8-2.2,1.2-4.7,1.2-7.4C745.5,74.8,745.1,72.4,744.3,70.2z M735.2,85.6   c-1.5,2-3.5,3-6.1,3c-2.6,0-4.6-1-6.1-3c-1.4-2-2.2-4.7-2.2-8.1c0-3.4,0.7-6,2.2-8c1.5-2,3.5-3,6.1-3c2.6,0,4.6,1,6.1,3   c1.5,2,2.2,4.6,2.2,8C737.4,81,736.7,83.7,735.2,85.6z M725.6,138.6v27.5c-0.5,0.1-1.3,0.2-2.4,0.3c-1.1,0.1-2.1,0.1-3,0.1   c-2.7,0-4.5-0.8-5.6-2.3s-1.6-4.2-1.6-7.8v-17.8h-7.9v19c0,2.3,0.2,4.4,0.7,6.3c0.5,1.9,1.3,3.6,2.4,5c1.1,1.4,2.6,2.5,4.4,3.2   c1.8,0.8,4.1,1.2,6.9,1.2c2.9,0,5.6-0.2,8-0.6c2.4-0.4,4.4-0.8,5.9-1.2v-33H725.6z M704.4,69.1c-0.5-1.9-1.2-3.6-2.3-4.9   c-1.1-1.4-2.6-2.4-4.4-3.2c-1.9-0.8-4.2-1.1-7-1.1c-2.9,0-5.6,0.2-8.1,0.6c-2.4,0.4-4.4,0.8-5.9,1.2v32.9h7.9V67.1   c0.5-0.1,1.3-0.2,2.4-0.3s2.1-0.2,3.1-0.2c1.3,0,2.5,0.2,3.4,0.6c0.9,0.4,1.7,1,2.2,1.8c0.5,0.8,0.9,1.8,1.2,3.1   c0.2,1.3,0.4,2.8,0.4,4.7v17.9h7.9V75.4C705.1,73.2,704.9,71,704.4,69.1z M672.6,138.6v27.5c-0.5,0.1-1.3,0.2-2.4,0.3   c-1.1,0.1-2.1,0.1-3,0.1c-2.6,0-4.5-0.8-5.6-2.3s-1.6-4.2-1.6-7.8v-17.8h-7.9v19c0,2.3,0.2,4.4,0.7,6.3c0.5,1.9,1.3,3.6,2.4,5   c1.1,1.4,2.6,2.5,4.4,3.2c1.8,0.8,4.1,1.2,6.9,1.2c2.9,0,5.6-0.2,8-0.6c2.4-0.4,4.4-0.8,5.9-1.2v-33H672.6z M666.4,67.7   c-0.5-1.7-1.2-3.1-2.3-4.2s-2.5-2.1-4.3-2.7c-1.8-0.7-4-1-6.6-1c-2.2,0-4.2,0.2-6.1,0.5c-1.9,0.3-3.4,0.7-4.4,1l1,6.4   c0.9-0.3,2.2-0.6,3.7-0.9c1.5-0.3,3.2-0.4,5-0.4c1.3,0,2.5,0.2,3.3,0.5c0.9,0.3,1.6,0.8,2.1,1.5c0.5,0.6,0.9,1.4,1.1,2.2   c0.2,0.8,0.3,1.7,0.3,2.6v1.3c-1.1-0.3-2.1-0.4-3-0.5c-1-0.1-1.9-0.2-2.7-0.2c-1.9,0-3.7,0.2-5.4,0.5c-1.7,0.4-3.2,1-4.5,1.8   c-1.3,0.8-2.3,1.9-3.1,3.3c-0.8,1.4-1.1,3-1.1,4.9c0,2,0.3,3.8,1,5.1c0.7,1.4,1.6,2.5,2.8,3.4c1.2,0.9,2.6,1.5,4.3,1.9   c1.7,0.4,3.6,0.6,5.6,0.6c3.1,0,5.8-0.2,8.3-0.5c2.4-0.4,4.3-0.7,5.5-1V73.2C667.1,71.2,666.9,69.3,666.4,67.7z M659.5,88.6   c-1.3,0.3-3.1,0.4-5.5,0.4c-2,0-3.6-0.4-4.8-1.1c-1.2-0.7-1.8-2-1.8-3.9c0-1,0.2-1.8,0.7-2.4c0.4-0.6,1-1.1,1.7-1.5   c0.7-0.3,1.5-0.6,2.4-0.7c0.9-0.1,1.8-0.2,2.6-0.2c1,0,1.9,0.1,2.7,0.2c0.8,0.1,1.5,0.3,1.9,0.4V88.6z M643.3,148.2   c-0.8-2.2-1.9-4.1-3.3-5.6s-3.2-2.8-5.2-3.6c-2-0.8-4.2-1.3-6.6-1.3c-2.4,0-4.6,0.4-6.6,1.3c-2,0.8-3.7,2-5.2,3.6   c-1.5,1.6-2.6,3.4-3.4,5.6c-0.8,2.2-1.2,4.6-1.2,7.3c0,2.7,0.4,5.1,1.2,7.4c0.8,2.2,1.9,4.1,3.4,5.6c1.4,1.6,3.1,2.8,5.1,3.6   c2,0.9,4.2,1.3,6.6,1.3c2.4,0,4.7-0.4,6.7-1.3c2-0.9,3.7-2.1,5.2-3.6c1.4-1.6,2.5-3.4,3.3-5.6c0.8-2.2,1.2-4.7,1.2-7.4   C644.5,152.8,644.1,150.4,643.3,148.2z M634.2,163.7c-1.5,2-3.5,3-6.1,3c-2.6,0-4.6-1-6.1-3c-1.4-2-2.2-4.7-2.2-8.1   c0-3.4,0.7-6,2.2-8c1.5-2,3.5-3,6.1-3c2.6,0,4.6,1,6.1,3c1.5,2,2.2,4.6,2.2,8C636.4,159,635.7,161.7,634.2,163.7z M628.1,60.6   c-0.5,1.9-1,3.9-1.7,6.1c-0.7,2.2-1.3,4.4-2.1,6.6c-0.7,2.2-1.4,4.3-2.2,6.4c-0.7,2.1-1.4,3.9-2.1,5.6c-0.7-1.6-1.4-3.5-2.1-5.6   c-0.8-2.1-1.5-4.2-2.2-6.4c-0.7-2.2-1.4-4.4-2-6.6c-0.6-2.2-1.2-4.2-1.7-6.1h-8.4c1.9,6.6,4,12.8,6.2,18.6   c2.3,5.8,4.5,10.9,6.7,15.4h6.7c2.2-4.5,4.4-9.6,6.7-15.4c2.3-5.8,4.4-12,6.2-18.6H628.1z M606.8,167.7c-1.2-1.7-2.4-3.5-3.8-5.2   c-1.3-1.7-2.7-3.4-4.1-4.9c-1.4-1.5-2.8-2.8-4.1-3.9c2.4-2.5,4.8-5,7.2-7.6c2.4-2.6,4.7-5.1,6.8-7.5h-9.3c-0.7,0.8-1.5,1.8-2.5,2.9   c-1,1.1-2,2.2-3.1,3.4c-1.1,1.2-2.2,2.4-3.3,3.6s-2.2,2.3-3.2,3.4v-29.7l-7.9,1.3v49.1h7.9V157c1.2,0.9,2.4,1.9,3.6,3.2   c1.2,1.2,2.4,2.5,3.6,3.9c1.2,1.4,2.3,2.8,3.3,4.3c1,1.5,1.9,2.9,2.7,4.2h9.1C608.9,171.1,607.9,169.5,606.8,167.7z M599.3,70.2   c-0.8-2.2-1.9-4.1-3.3-5.6c-1.4-1.6-3.2-2.8-5.2-3.6c-2-0.8-4.2-1.3-6.6-1.3s-4.6,0.4-6.6,1.3c-2,0.8-3.7,2-5.2,3.6   c-1.5,1.6-2.6,3.4-3.4,5.6c-0.8,2.2-1.2,4.6-1.2,7.3c0,2.7,0.4,5.1,1.2,7.4c0.8,2.2,1.9,4.1,3.4,5.6c1.4,1.6,3.1,2.8,5.1,3.6   c2,0.9,4.2,1.3,6.6,1.3c2.4,0,4.7-0.4,6.7-1.3c2-0.9,3.7-2.1,5.2-3.6s2.5-3.4,3.3-5.6c0.8-2.2,1.2-4.7,1.2-7.4   C600.5,74.8,600.1,72.4,599.3,70.2z M590.2,85.6c-1.5,2-3.5,3-6.1,3c-2.6,0-4.6-1-6.1-3c-1.5-2-2.2-4.7-2.2-8.1c0-3.4,0.7-6,2.2-8   c1.4-2,3.5-3,6.1-3c2.6,0,4.6,1,6.1,3c1.5,2,2.2,4.6,2.2,8C592.4,81,591.7,83.7,590.2,85.6z M571.7,159.6c-0.4-1.1-1-2-1.8-2.9   c-0.9-0.8-1.9-1.6-3.2-2.3c-1.3-0.7-2.9-1.3-4.8-2c-1.1-0.4-2.1-0.8-2.8-1.1c-0.8-0.4-1.4-0.7-1.9-1.1s-0.8-0.8-1-1.2   c-0.2-0.4-0.3-0.9-0.3-1.5c0-1.1,0.5-2,1.5-2.5c1-0.5,2.3-0.8,3.9-0.8c1.8,0,3.3,0.2,4.7,0.5c1.3,0.3,2.4,0.7,3.3,1.1l1.4-6.4   c-0.9-0.3-2.3-0.7-4.1-1.1c-1.8-0.4-3.7-0.6-5.7-0.6c-3.9,0-7.1,0.9-9.4,2.7c-2.3,1.8-3.4,4.3-3.4,7.4c0,1.6,0.2,3,0.8,4.1   c0.5,1.1,1.2,2,2,2.8c0.9,0.8,1.9,1.5,3.1,2c1.2,0.6,2.5,1.1,3.9,1.7c2.3,0.9,4,1.7,5,2.4c1,0.7,1.5,1.7,1.5,2.8   c0,1.2-0.5,2.1-1.4,2.6c-0.9,0.5-2.5,0.8-4.5,0.8s-3.9-0.2-5.6-0.6c-1.6-0.4-3-0.9-4.2-1.4l-1.4,6.6c0.7,0.3,2,0.7,3.8,1.2   s4.2,0.8,7.2,0.8c4.5,0,7.9-0.8,10.3-2.5c2.4-1.7,3.6-4.1,3.6-7.4C572.3,162,572.1,160.7,571.7,159.6z M563.2,87.2   c-1,0.4-2.1,0.7-3.4,1c-1.3,0.3-2.6,0.4-4,0.4c-3.6,0-6.2-1-7.7-3c-1.5-2-2.3-4.7-2.3-8c0-3.5,0.8-6.2,2.4-8.2c1.6-1.9,4-2.9,7-2.9   c1.3,0,2.5,0.1,3.7,0.4c1.1,0.3,2.2,0.6,3.1,1l1.7-6.4c-2.9-1.2-5.9-1.8-9.1-1.8c-2.6,0-4.9,0.5-7,1.4c-2.1,0.9-3.9,2.2-5.3,3.8   c-1.5,1.6-2.6,3.5-3.4,5.7c-0.8,2.2-1.2,4.5-1.2,7.1c0,2.5,0.3,4.9,1,7.1c0.7,2.2,1.8,4.1,3.2,5.7c1.4,1.6,3.2,2.8,5.3,3.7   c2.1,0.9,4.7,1.3,7.6,1.3c1.9,0,3.7-0.2,5.4-0.5c1.8-0.4,3.1-0.7,3.9-1.2L563.2,87.2z M540.6,148.2c-0.8-2.2-2-4-3.5-5.6   c-1.5-1.5-3.3-2.7-5.4-3.5c-2.1-0.8-4.5-1.2-7.2-1.2c-2.6,0-5.1,0.2-7.4,0.6c-2.3,0.4-4.3,0.8-5.9,1.2v44.9h7.9v-13.2   c0.9,0.5,2,0.9,3.3,1.3c1.3,0.4,2.8,0.6,4.4,0.6c2.4,0,4.5-0.4,6.4-1.3c1.9-0.9,3.5-2.1,4.7-3.6c1.3-1.6,2.2-3.4,2.9-5.6   c0.7-2.2,1-4.5,1-7.2C541.8,152.9,541.4,150.4,540.6,148.2z M531.7,163.6c-1.3,2-3.4,2.9-6.3,2.9c-1.3,0-2.5-0.2-3.7-0.6   c-1.1-0.4-2.1-0.8-2.8-1.3v-19.4c0.8-0.2,1.6-0.4,2.4-0.4c0.8-0.1,1.6-0.1,2.3-0.1c3.5,0,6.1,1,7.6,2.9c1.6,2,2.4,4.7,2.4,8.2   C533.7,159,533,161.6,531.7,163.6z M529.4,69.1c-0.5-1.9-1.2-3.6-2.3-4.9c-1.1-1.4-2.6-2.4-4.5-3.2s-4.2-1.1-7-1.1   c-2.9,0-5.6,0.2-8.1,0.6c-2.4,0.4-4.4,0.8-5.9,1.2v32.9h7.9V67.1c0.5-0.1,1.3-0.2,2.4-0.3c1.1-0.1,2.1-0.2,3.1-0.2   c1.3,0,2.5,0.2,3.4,0.6c0.9,0.4,1.7,1,2.2,1.8c0.5,0.8,0.9,1.8,1.2,3.1c0.2,1.3,0.4,2.8,0.4,4.7v17.9h7.9V75.4   C530.1,73.2,529.9,71,529.4,69.1z M501.8,148.2c-0.8-2.2-1.9-4.1-3.3-5.6s-3.2-2.8-5.2-3.6c-2-0.8-4.2-1.3-6.6-1.3   c-2.4,0-4.6,0.4-6.6,1.3c-2,0.8-3.7,2-5.2,3.6c-1.5,1.6-2.6,3.4-3.4,5.6c-0.8,2.2-1.2,4.6-1.2,7.3c0,2.7,0.4,5.1,1.2,7.4   c0.8,2.2,1.9,4.1,3.4,5.6c1.4,1.6,3.1,2.8,5.1,3.6c2,0.9,4.2,1.3,6.6,1.3c2.4,0,4.7-0.4,6.7-1.3c2-0.9,3.7-2.1,5.2-3.6   s2.5-3.4,3.3-5.6c0.8-2.2,1.2-4.7,1.2-7.4C503,152.8,502.6,150.4,501.8,148.2z M492.8,163.7c-1.5,2-3.5,3-6.1,3c-2.6,0-4.6-1-6.1-3   c-1.5-2-2.2-4.7-2.2-8.1c0-3.4,0.7-6,2.2-8c1.4-2,3.5-3,6.1-3c2.6,0,4.6,1,6.1,3c1.5,2,2.2,4.6,2.2,8   C495,159,494.2,161.7,492.8,163.7z M491.4,67.7c-0.5-1.7-1.2-3.1-2.3-4.2c-1.1-1.2-2.5-2.1-4.2-2.7c-1.8-0.7-4-1-6.6-1   c-2.2,0-4.2,0.2-6.1,0.5c-1.9,0.3-3.4,0.7-4.3,1l1,6.4c1-0.3,2.2-0.6,3.7-0.9c1.5-0.3,3.2-0.4,5-0.4c1.3,0,2.5,0.2,3.3,0.5   c0.9,0.3,1.6,0.8,2.1,1.5c0.5,0.6,0.9,1.4,1.1,2.2c0.2,0.8,0.3,1.7,0.3,2.6v1.3c-1.1-0.3-2.1-0.4-3.1-0.5c-1-0.1-1.9-0.2-2.7-0.2   c-1.9,0-3.6,0.2-5.4,0.5s-3.2,1-4.5,1.8c-1.3,0.8-2.3,1.9-3.1,3.3c-0.8,1.4-1.1,3-1.1,4.9c0,2,0.3,3.8,1,5.1   c0.7,1.4,1.6,2.5,2.8,3.4c1.2,0.9,2.6,1.5,4.3,1.9s3.5,0.6,5.6,0.6c3.1,0,5.8-0.2,8.3-0.5c2.4-0.4,4.3-0.7,5.5-1V73.2   C492.1,71.2,491.9,69.3,491.4,67.7z M484.5,88.6c-1.3,0.3-3.1,0.4-5.5,0.4c-2,0-3.6-0.4-4.8-1.1c-1.2-0.7-1.8-2-1.8-3.9   c0-1,0.2-1.8,0.7-2.4c0.4-0.6,1-1.1,1.7-1.5c0.7-0.3,1.5-0.6,2.4-0.7c0.9-0.1,1.8-0.2,2.6-0.2c1,0,1.9,0.1,2.7,0.2s1.5,0.3,1.9,0.4   V88.6z M465.3,138.6c-0.6-0.1-1.3-0.3-2-0.4c-0.7-0.1-1.4-0.2-2.1-0.3c-0.7-0.1-1.3-0.1-1.8-0.1c-2.8,0-5.3,0.2-7.6,0.8   c-2.3,0.5-4.2,1-5.7,1.6v32.4h7.9v-27.2c0.4-0.1,1.1-0.3,2-0.5c1-0.2,1.9-0.3,2.8-0.3c1.5,0,2.9,0.1,4,0.4c1.1,0.2,2,0.5,2.7,0.7   l1.4-6.6C466.4,138.9,465.9,138.7,465.3,138.6z M456.7,69.1c-0.5-1.9-1.2-3.6-2.3-4.9c-1.1-1.4-2.6-2.4-4.5-3.2   c-1.9-0.8-4.2-1.1-7-1.1c-3,0-5.6,0.2-8.1,0.6s-4.4,0.8-5.9,1.2v32.9h7.9V67.1c0.5-0.1,1.3-0.2,2.4-0.3c1.1-0.1,2.1-0.2,3.1-0.2   c1.3,0,2.5,0.2,3.4,0.6c0.9,0.4,1.7,1,2.2,1.8c0.5,0.8,0.9,1.8,1.2,3.1c0.2,1.3,0.4,2.8,0.4,4.7v17.9h7.9V75.4   C457.4,73.2,457.2,71,456.7,69.1z M432.2,138.6c-0.5,1.9-1,3.9-1.7,6.1c-0.7,2.2-1.3,4.4-2.1,6.6c-0.7,2.2-1.5,4.3-2.2,6.4   c-0.7,2.1-1.4,3.9-2.1,5.6c-0.7-1.6-1.4-3.5-2.1-5.6c-0.8-2.1-1.5-4.2-2.2-6.4c-0.7-2.2-1.4-4.4-2-6.6s-1.2-4.2-1.7-6.1h-8.4   c1.9,6.6,4,12.8,6.2,18.6c2.3,5.8,4.5,10.9,6.7,15.4h6.7c2.2-4.5,4.4-9.6,6.7-15.4c2.3-5.8,4.4-12,6.2-18.6H432.2z M383.8,165.6   v-13.2h18.5v-6.8h-18.5v-11.1h20.7v-7h-28.9v45h30.5v-7H383.8z M404.1,56.5v-7h-28.5v45h8.2V74.9h18v-7h-18V56.5H404.1z    M411.1,60.6v34h7.9v-34H411.1z M418.4,47c-0.9-0.9-2.1-1.3-3.4-1.3c-1.3,0-2.5,0.4-3.4,1.3c-1,0.9-1.4,2-1.4,3.6   c0,1.5,0.5,2.6,1.4,3.5c1,0.9,2.1,1.3,3.4,1.3c1.3,0,2.4-0.4,3.4-1.3c1-0.9,1.4-2,1.4-3.5C419.8,49.1,419.3,47.9,418.4,47z    M658.2,42l-9.5,11.4l3.9,3.5l10.6-10.3L658.2,42z M799.6,138.6v34h7.9v-34H799.6z"/>	<path class="st1" d="M44.1,15.7V216H339V15.7H44.1z M333.4,210.3H49.8V21.2h283.6V210.3z"/>	<polygon class="st1" points="195.2,55.3 197.5,62.4 191.5,58 185.5,62.4 187.8,55.3 181.7,51 189.2,51 191.5,43.8 193.8,51    201.3,51  "/>	<polygon class="st1" points="164.3,63.6 166.5,70.7 160.5,66.3 154.6,70.7 156.8,63.6 150.8,59.3 158.3,59.3 160.5,52.1    162.8,59.3 170.3,59.3  "/>	<polygon class="st1" points="141.6,86.4 143.9,93.4 137.9,89.1 131.9,93.4 134.2,86.4 128.1,82 135.6,82 137.9,74.8 140.2,82    147.7,82  "/>	<polygon class="st1" points="133.3,117.3 135.6,124.3 129.6,120 123.6,124.3 125.9,117.3 119.8,112.9 127.3,112.9 129.6,105.8    131.9,112.9 139.4,112.9  "/>	<polygon class="st1" points="141.6,148.3 143.9,155.4 137.9,151 131.9,155.4 134.2,148.3 128.1,143.9 135.6,144 137.9,136.8    140.2,143.9 147.7,143.9  "/>	<polygon class="st1" points="164.3,171 166.6,178.1 160.6,173.7 154.6,178.1 156.9,171 150.8,166.6 158.3,166.7 160.6,159.5    162.9,166.6 170.4,166.6  "/>	<polygon class="st1" points="195.2,179.2 197.5,186.3 191.5,181.9 185.5,186.3 187.8,179.2 181.7,174.9 189.2,174.9 191.5,167.7    193.8,174.9 201.3,174.9  "/>	<polygon class="st1" points="226.2,171 228.4,178.1 222.5,173.7 216.5,178.1 218.7,171 212.7,166.6 220.2,166.7 222.5,159.5    224.7,166.6 232.2,166.6  "/>	<polygon class="st1" points="248.9,148.3 251.1,155.4 245.2,151 239.2,155.4 241.5,148.3 235.4,143.9 242.9,144 245.2,136.8    247.5,143.9 254.9,143.9  "/>	<polygon class="st1" points="257.1,117.2 259.4,124.3 253.4,119.9 247.4,124.3 249.7,117.2 243.6,112.8 251.1,112.8 253.4,105.7    255.7,112.8 263.2,112.8  "/>	<polygon class="st1" points="248.9,86.3 251.1,93.3 245.2,89 239.2,93.3 241.5,86.3 235.4,81.9 242.9,81.9 245.2,74.7 247.5,81.9    254.9,81.9  "/>	<polygon class="st1" points="226.3,63.7 228.5,70.7 222.6,66.3 216.6,70.7 218.8,63.7 212.8,59.3 220.3,59.3 222.5,52.1    224.8,59.3 232.3,59.3  "/>	<polygon class="st1" points="383.8,74.9 401.8,74.9 401.8,68 383.8,68 383.8,56.5 404.1,56.5 404.1,49.5 375.6,49.5 375.6,94.6    383.8,94.6  "/>	<rect x="411.1" y="60.6" class="st1" width="7.9" height="34"/>	<path class="st1" d="M415,55.4c1.3,0,2.4-0.4,3.4-1.3c1-0.9,1.4-2,1.4-3.5c0-1.5-0.5-2.7-1.4-3.6c-0.9-0.9-2.1-1.3-3.4-1.3   c-1.3,0-2.5,0.4-3.4,1.3c-1,0.9-1.4,2.1-1.4,3.6c0,1.5,0.5,2.6,1.4,3.5C412.5,55,413.7,55.4,415,55.4z"/>	<path class="st1" d="M448,68.9c0.5,0.8,0.9,1.8,1.2,3.1c0.2,1.3,0.4,2.8,0.4,4.6v17.9h7.9V75.4c0-2.3-0.2-4.4-0.7-6.3   c-0.5-1.9-1.2-3.6-2.3-4.9c-1.1-1.4-2.6-2.4-4.5-3.2c-1.9-0.8-4.2-1.1-7-1.1c-2.9,0-5.6,0.2-8.1,0.6c-2.4,0.4-4.4,0.8-5.9,1.2v32.9   h7.9V67.1c0.5-0.1,1.3-0.2,2.4-0.3c1.1-0.1,2.1-0.2,3.1-0.2c1.3,0,2.5,0.2,3.4,0.6C446.7,67.5,447.5,68.1,448,68.9z"/>	<path class="st1" d="M491.4,67.7c-0.5-1.7-1.2-3.1-2.3-4.2c-1.1-1.2-2.5-2.1-4.2-2.7c-1.8-0.7-4-1-6.6-1c-2.2,0-4.2,0.2-6.1,0.5   c-1.9,0.3-3.4,0.7-4.3,1l1,6.4c1-0.3,2.2-0.6,3.7-0.9c1.5-0.3,3.2-0.4,5-0.4c1.3,0,2.5,0.2,3.3,0.5c0.9,0.3,1.6,0.8,2.1,1.5   c0.5,0.6,0.9,1.4,1.1,2.2c0.2,0.8,0.3,1.7,0.3,2.6v1.3c-1.1-0.3-2.1-0.4-3.1-0.5c-1-0.1-1.9-0.2-2.7-0.2c-1.9,0-3.6,0.2-5.4,0.5   s-3.2,1-4.5,1.8c-1.3,0.8-2.3,1.9-3.1,3.3c-0.8,1.4-1.1,3-1.1,4.9c0,2,0.3,3.8,1,5.1c0.7,1.4,1.6,2.5,2.8,3.4   c1.2,0.9,2.6,1.5,4.3,1.9s3.5,0.6,5.6,0.6c3.1,0,5.8-0.2,8.3-0.5c2.4-0.4,4.3-0.7,5.5-1V73.2C492.1,71.2,491.9,69.3,491.4,67.7z    M484.5,88.6c-1.3,0.3-3.1,0.4-5.5,0.4c-2,0-3.6-0.4-4.8-1.1c-1.2-0.7-1.8-2-1.8-3.9c0-1,0.2-1.8,0.7-2.4c0.4-0.6,1-1.1,1.7-1.5   c0.7-0.3,1.5-0.6,2.4-0.7c0.9-0.1,1.8-0.2,2.6-0.2c1,0,1.9,0.1,2.7,0.2s1.5,0.3,1.9,0.4V88.6z"/>	<path class="st1" d="M515.1,66.6c1.3,0,2.5,0.2,3.4,0.6c0.9,0.4,1.7,1,2.2,1.8c0.5,0.8,0.9,1.8,1.2,3.1c0.2,1.3,0.4,2.8,0.4,4.6   v17.9h7.9V75.4c0-2.3-0.2-4.4-0.7-6.3c-0.5-1.9-1.2-3.6-2.3-4.9c-1.1-1.4-2.6-2.4-4.5-3.2c-1.9-0.8-4.2-1.1-7-1.1   c-2.9,0-5.6,0.2-8.1,0.6c-2.4,0.4-4.4,0.8-5.9,1.2v32.9h7.9V67.1c0.5-0.1,1.3-0.2,2.4-0.3C513.1,66.7,514.1,66.6,515.1,66.6z"/>	<path class="st1" d="M555,95.4c1.9,0,3.7-0.2,5.4-0.5c1.8-0.3,3.1-0.7,3.9-1.2l-1.1-6.5c-1,0.4-2.1,0.7-3.4,1   c-1.3,0.3-2.6,0.4-4,0.4c-3.6,0-6.2-1-7.7-3c-1.5-2-2.3-4.6-2.3-8c0-3.5,0.8-6.2,2.4-8.2c1.6-1.9,3.9-2.9,7-2.9   c1.3,0,2.5,0.1,3.7,0.4c1.1,0.3,2.2,0.6,3.1,1l1.7-6.4c-2.9-1.2-5.9-1.8-9.1-1.8c-2.6,0-4.9,0.5-7,1.4c-2.1,0.9-3.8,2.2-5.3,3.8   c-1.5,1.6-2.6,3.5-3.3,5.7c-0.8,2.2-1.2,4.5-1.2,7.1c0,2.6,0.3,4.9,1,7.1c0.7,2.2,1.7,4.1,3.2,5.7c1.4,1.6,3.2,2.8,5.3,3.7   C549.5,95,552.1,95.4,555,95.4z"/>	<path class="st1" d="M599.3,70.2c-0.8-2.2-1.9-4.1-3.3-5.6c-1.4-1.6-3.2-2.8-5.2-3.6c-2-0.8-4.2-1.3-6.6-1.3s-4.6,0.4-6.6,1.3   c-2,0.8-3.7,2-5.2,3.6c-1.5,1.6-2.6,3.4-3.4,5.6c-0.8,2.2-1.2,4.6-1.2,7.3c0,2.7,0.4,5.1,1.2,7.4c0.8,2.2,1.9,4.1,3.4,5.6   c1.4,1.6,3.1,2.8,5.1,3.6c2,0.9,4.2,1.3,6.6,1.3c2.4,0,4.7-0.4,6.7-1.3c2-0.9,3.7-2.1,5.2-3.6s2.5-3.4,3.3-5.6   c0.8-2.2,1.2-4.7,1.2-7.4C600.5,74.8,600.1,72.4,599.3,70.2z M590.2,85.6c-1.5,2-3.5,3-6.1,3c-2.6,0-4.6-1-6.1-3   c-1.5-2-2.2-4.7-2.2-8.1c0-3.4,0.7-6,2.2-8c1.4-2,3.5-3,6.1-3c2.6,0,4.6,1,6.1,3c1.5,2,2.2,4.6,2.2,8   C592.4,81,591.7,83.7,590.2,85.6z"/>	<path class="st1" d="M623.3,94.6c2.2-4.5,4.4-9.6,6.7-15.4c2.3-5.8,4.4-12,6.2-18.6h-8.1c-0.5,1.9-1,4-1.7,6.1   c-0.7,2.2-1.3,4.4-2.1,6.6c-0.7,2.2-1.5,4.3-2.2,6.4c-0.7,2.1-1.4,3.9-2.1,5.6c-0.7-1.6-1.4-3.5-2.1-5.6c-0.8-2.1-1.5-4.2-2.2-6.4   c-0.7-2.2-1.4-4.4-2-6.6c-0.6-2.2-1.2-4.2-1.7-6.1h-8.4c1.9,6.6,3.9,12.8,6.2,18.6c2.3,5.8,4.5,10.9,6.7,15.4H623.3z"/>	<path class="st1" d="M666.4,67.7c-0.5-1.7-1.2-3.1-2.3-4.2s-2.5-2.1-4.3-2.7c-1.8-0.7-4-1-6.6-1c-2.2,0-4.2,0.2-6.1,0.5   c-1.9,0.3-3.4,0.7-4.4,1l1,6.4c0.9-0.3,2.2-0.6,3.7-0.9c1.5-0.3,3.2-0.4,5-0.4c1.3,0,2.5,0.2,3.3,0.5c0.9,0.3,1.6,0.8,2.1,1.5   c0.5,0.6,0.9,1.4,1.1,2.2c0.2,0.8,0.3,1.7,0.3,2.6v1.3c-1.1-0.3-2.1-0.4-3-0.5c-1-0.1-1.9-0.2-2.7-0.2c-1.9,0-3.7,0.2-5.4,0.5   c-1.7,0.4-3.2,1-4.5,1.8c-1.3,0.8-2.3,1.9-3.1,3.3c-0.8,1.4-1.1,3-1.1,4.9c0,2,0.3,3.8,1,5.1c0.7,1.4,1.6,2.5,2.8,3.4   c1.2,0.9,2.6,1.5,4.3,1.9c1.7,0.4,3.6,0.6,5.6,0.6c3.1,0,5.8-0.2,8.3-0.5c2.4-0.4,4.3-0.7,5.5-1V73.2   C667.1,71.2,666.9,69.3,666.4,67.7z M659.5,88.6c-1.3,0.3-3.1,0.4-5.5,0.4c-2,0-3.6-0.4-4.8-1.1c-1.2-0.7-1.8-2-1.8-3.9   c0-1,0.2-1.8,0.7-2.4c0.4-0.6,1-1.1,1.7-1.5c0.7-0.3,1.5-0.6,2.4-0.7c0.9-0.1,1.8-0.2,2.6-0.2c1,0,1.9,0.1,2.7,0.2   c0.8,0.1,1.5,0.3,1.9,0.4V88.6z"/>	<polygon class="st1" points="663.1,46.6 658.2,42 648.6,53.4 652.5,56.9  "/>	<path class="st1" d="M702.1,64.2c-1.1-1.4-2.6-2.4-4.5-3.2c-1.9-0.8-4.2-1.1-7-1.1c-2.9,0-5.6,0.2-8.1,0.6   c-2.4,0.4-4.4,0.8-5.9,1.2v32.9h7.9V67.1c0.5-0.1,1.3-0.2,2.4-0.3c1.1-0.1,2.1-0.2,3.1-0.2c1.3,0,2.5,0.2,3.4,0.6   c0.9,0.4,1.7,1,2.2,1.8c0.5,0.8,0.9,1.8,1.2,3.1c0.2,1.3,0.4,2.8,0.4,4.6v17.9h7.9V75.4c0-2.3-0.2-4.4-0.7-6.3   C704,67.2,703.2,65.5,702.1,64.2z"/>	<path class="st1" d="M744.3,70.2c-0.8-2.2-1.9-4.1-3.3-5.6c-1.4-1.6-3.2-2.8-5.2-3.6c-2-0.8-4.2-1.3-6.6-1.3   c-2.4,0-4.6,0.4-6.6,1.3c-2,0.8-3.7,2-5.2,3.6s-2.6,3.4-3.4,5.6s-1.2,4.6-1.2,7.3c0,2.7,0.4,5.1,1.2,7.4c0.8,2.2,1.9,4.1,3.3,5.6   c1.4,1.6,3.1,2.8,5.1,3.6c2,0.9,4.2,1.3,6.6,1.3s4.7-0.4,6.7-1.3c2-0.9,3.7-2.1,5.2-3.6s2.5-3.4,3.3-5.6c0.8-2.2,1.2-4.7,1.2-7.4   C745.5,74.8,745.1,72.4,744.3,70.2z M735.2,85.6c-1.5,2-3.5,3-6.1,3c-2.6,0-4.6-1-6.1-3c-1.4-2-2.2-4.7-2.2-8.1c0-3.4,0.7-6,2.2-8   c1.5-2,3.5-3,6.1-3c2.6,0,4.6,1,6.1,3c1.5,2,2.2,4.6,2.2,8C737.4,81,736.7,83.7,735.2,85.6z"/>	<polygon class="st1" points="383.8,152.4 402.3,152.4 402.3,145.6 383.8,145.6 383.8,134.5 404.6,134.5 404.6,127.5 375.6,127.5    375.6,172.6 406.1,172.6 406.1,165.6 383.8,165.6  "/>	<path class="st1" d="M430.5,144.7c-0.7,2.2-1.3,4.4-2.1,6.6c-0.7,2.2-1.5,4.3-2.2,6.4c-0.7,2.1-1.4,3.9-2.1,5.6   c-0.7-1.6-1.4-3.5-2.1-5.6c-0.8-2.1-1.5-4.2-2.2-6.4c-0.7-2.2-1.4-4.4-2-6.6c-0.6-2.2-1.2-4.2-1.7-6.1h-8.4   c1.9,6.6,3.9,12.8,6.2,18.6c2.3,5.8,4.5,10.9,6.7,15.4h6.7c2.2-4.5,4.4-9.6,6.7-15.4c2.3-5.8,4.4-12,6.2-18.6h-8.1   C431.7,140.5,431.1,142.5,430.5,144.7z"/>	<path class="st1" d="M463.2,138.2c-0.7-0.1-1.4-0.2-2.1-0.3c-0.7-0.1-1.3-0.1-1.8-0.1c-2.8,0-5.3,0.3-7.6,0.7   c-2.3,0.5-4.2,1-5.7,1.6v32.4h7.9v-27.2c0.4-0.1,1.1-0.3,2-0.5c1-0.2,1.9-0.3,2.8-0.3c1.5,0,2.8,0.1,4,0.4c1.1,0.2,2,0.5,2.7,0.7   l1.4-6.6c-0.4-0.1-0.9-0.3-1.6-0.4C464.6,138.4,463.9,138.3,463.2,138.2z"/>	<path class="st1" d="M501.8,148.2c-0.8-2.2-1.9-4.1-3.3-5.6s-3.2-2.8-5.2-3.6c-2-0.8-4.2-1.3-6.6-1.3c-2.4,0-4.6,0.4-6.6,1.3   c-2,0.8-3.7,2-5.2,3.6c-1.5,1.6-2.6,3.4-3.4,5.6c-0.8,2.2-1.2,4.6-1.2,7.3c0,2.7,0.4,5.1,1.2,7.4c0.8,2.2,1.9,4.1,3.4,5.6   c1.4,1.6,3.1,2.8,5.1,3.6c2,0.9,4.2,1.3,6.6,1.3c2.4,0,4.7-0.4,6.7-1.3c2-0.9,3.7-2.1,5.2-3.6s2.5-3.4,3.3-5.6   c0.8-2.2,1.2-4.7,1.2-7.4C503,152.8,502.6,150.4,501.8,148.2z M492.8,163.7c-1.5,2-3.5,3-6.1,3c-2.6,0-4.6-1-6.1-3   c-1.5-2-2.2-4.7-2.2-8.1c0-3.4,0.7-6,2.2-8c1.4-2,3.5-3,6.1-3c2.6,0,4.6,1,6.1,3c1.5,2,2.2,4.6,2.2,8   C495,159,494.2,161.7,492.8,163.7z"/>	<path class="st1" d="M540.6,148.2c-0.8-2.2-2-4-3.5-5.6c-1.5-1.5-3.3-2.7-5.4-3.5c-2.1-0.8-4.5-1.2-7.2-1.2c-2.6,0-5.1,0.2-7.4,0.6   c-2.3,0.4-4.3,0.8-5.9,1.2v44.9h7.9v-13.2c0.9,0.5,2,0.9,3.3,1.3c1.3,0.4,2.8,0.6,4.4,0.6c2.4,0,4.5-0.4,6.4-1.3   c1.9-0.9,3.5-2.1,4.7-3.6c1.3-1.6,2.2-3.4,2.9-5.6c0.7-2.2,1-4.5,1-7.2C541.8,152.9,541.4,150.4,540.6,148.2z M531.7,163.6   c-1.3,2-3.4,2.9-6.3,2.9c-1.3,0-2.5-0.2-3.7-0.6c-1.1-0.4-2.1-0.8-2.8-1.3v-19.4c0.8-0.2,1.6-0.4,2.4-0.4c0.8-0.1,1.6-0.1,2.3-0.1   c3.5,0,6.1,1,7.6,2.9c1.6,2,2.4,4.7,2.4,8.2C533.7,159,533,161.6,531.7,163.6z"/>	<path class="st1" d="M569.8,156.7c-0.8-0.8-1.9-1.6-3.2-2.3c-1.3-0.7-2.9-1.4-4.7-2c-1.1-0.4-2.1-0.8-2.9-1.1   c-0.8-0.4-1.4-0.7-1.9-1.1c-0.5-0.4-0.8-0.8-1-1.2c-0.2-0.4-0.3-0.9-0.3-1.5c0-1.1,0.5-2,1.5-2.5c1-0.5,2.3-0.8,3.9-0.8   c1.8,0,3.3,0.2,4.7,0.5c1.3,0.3,2.4,0.7,3.3,1.1l1.4-6.4c-0.9-0.3-2.3-0.7-4.1-1.1c-1.8-0.4-3.7-0.6-5.7-0.6   c-3.9,0-7.1,0.9-9.4,2.7s-3.4,4.3-3.4,7.4c0,1.6,0.2,3,0.7,4.1c0.5,1.1,1.2,2.1,2.1,2.8c0.9,0.8,1.9,1.5,3.1,2   c1.2,0.6,2.5,1.1,3.9,1.7c2.3,0.9,4,1.7,5,2.4c1,0.7,1.5,1.7,1.5,2.8c0,1.2-0.5,2.1-1.4,2.6c-1,0.5-2.5,0.7-4.5,0.7   c-2.1,0-3.9-0.2-5.6-0.6c-1.6-0.4-3-0.9-4.2-1.4l-1.4,6.6c0.7,0.3,2,0.7,3.8,1.2c1.8,0.5,4.2,0.7,7.2,0.7c4.5,0,7.9-0.8,10.3-2.5   c2.4-1.7,3.6-4.1,3.6-7.4c0-1.5-0.2-2.8-0.6-3.9C571.3,158.5,570.7,157.6,569.8,156.7z"/>	<path class="st1" d="M603,162.5c-1.3-1.7-2.7-3.4-4.1-4.9c-1.4-1.5-2.8-2.8-4.1-3.9c2.4-2.5,4.8-5,7.2-7.6c2.4-2.6,4.7-5.1,6.8-7.5   h-9.3c-0.7,0.8-1.5,1.8-2.5,2.9c-1,1.1-2,2.3-3.1,3.4c-1.1,1.2-2.2,2.4-3.3,3.6c-1.1,1.2-2.2,2.3-3.2,3.3v-29.7l-7.9,1.3v49.1h7.9   V157c1.2,0.9,2.4,1.9,3.6,3.2c1.2,1.2,2.4,2.5,3.6,3.9c1.2,1.4,2.3,2.8,3.3,4.3c1,1.5,1.9,2.9,2.7,4.2h9.1   c-0.8-1.5-1.8-3.1-2.9-4.8C605.6,166,604.3,164.3,603,162.5z"/>	<path class="st1" d="M643.3,148.2c-0.8-2.2-1.9-4.1-3.3-5.6s-3.2-2.8-5.2-3.6c-2-0.8-4.2-1.3-6.6-1.3c-2.4,0-4.6,0.4-6.6,1.3   c-2,0.8-3.7,2-5.2,3.6c-1.5,1.6-2.6,3.4-3.4,5.6c-0.8,2.2-1.2,4.6-1.2,7.3c0,2.7,0.4,5.1,1.2,7.4c0.8,2.2,1.9,4.1,3.4,5.6   c1.4,1.6,3.1,2.8,5.1,3.6c2,0.9,4.2,1.3,6.6,1.3c2.4,0,4.7-0.4,6.7-1.3c2-0.9,3.7-2.1,5.2-3.6c1.4-1.6,2.5-3.4,3.3-5.6   c0.8-2.2,1.2-4.7,1.2-7.4C644.5,152.8,644.1,150.4,643.3,148.2z M634.2,163.7c-1.5,2-3.5,3-6.1,3c-2.6,0-4.6-1-6.1-3   c-1.4-2-2.2-4.7-2.2-8.1c0-3.4,0.7-6,2.2-8c1.5-2,3.5-3,6.1-3c2.6,0,4.6,1,6.1,3c1.5,2,2.2,4.6,2.2,8   C636.4,159,635.7,161.7,634.2,163.7z"/>	<path class="st1" d="M672.6,166.1c-0.5,0.1-1.3,0.2-2.4,0.3c-1.1,0.1-2.1,0.1-3,0.1c-2.6,0-4.5-0.8-5.6-2.3   c-1.1-1.6-1.6-4.2-1.6-7.8v-17.8h-7.9v19c0,2.3,0.2,4.4,0.7,6.3c0.5,1.9,1.3,3.6,2.4,5c1.1,1.4,2.6,2.5,4.4,3.3   c1.8,0.8,4.1,1.2,6.9,1.2c2.9,0,5.6-0.2,8-0.6c2.4-0.4,4.4-0.8,5.9-1.2v-33h-7.9V166.1z"/>	<path class="st1" d="M725.6,166.1c-0.5,0.1-1.3,0.2-2.4,0.3c-1.1,0.1-2.1,0.1-3,0.1c-2.6,0-4.5-0.8-5.6-2.3   c-1.1-1.6-1.6-4.2-1.6-7.8v-17.8h-7.9v19c0,2.3,0.2,4.4,0.7,6.3c0.5,1.9,1.3,3.6,2.4,5c1.1,1.4,2.6,2.5,4.4,3.3   c1.8,0.8,4.1,1.2,6.9,1.2c2.9,0,5.6-0.2,8-0.6c2.4-0.4,4.4-0.8,5.9-1.2v-33h-7.9V166.1z"/>	<path class="st1" d="M768.9,142.2c-1.1-1.4-2.6-2.4-4.5-3.2c-1.9-0.8-4.2-1.1-7-1.1c-2.9,0-5.6,0.2-8.1,0.6   c-2.4,0.4-4.4,0.8-5.9,1.2v32.9h7.9v-27.4c0.5-0.1,1.3-0.2,2.4-0.3c1.1-0.1,2.1-0.2,3.1-0.2c1.3,0,2.5,0.2,3.4,0.6   c0.9,0.4,1.7,1,2.2,1.8c0.5,0.8,0.9,1.8,1.2,3.1c0.2,1.3,0.4,2.8,0.4,4.6v17.9h7.9v-19.1c0-2.3-0.2-4.4-0.7-6.3   C770.8,145.2,770,143.5,768.9,142.2z"/>	<rect x="781.6" y="138.6" class="st1" width="7.9" height="34"/>	<path class="st1" d="M785.5,123.7c-1.3,0-2.5,0.4-3.4,1.3c-1,0.9-1.4,2.1-1.4,3.6c0,1.5,0.5,2.6,1.4,3.5c0.9,0.9,2.1,1.3,3.4,1.3   c1.3,0,2.4-0.4,3.4-1.3c1-0.9,1.4-2,1.4-3.5c0-1.5-0.5-2.7-1.4-3.6C787.9,124.2,786.8,123.7,785.5,123.7z"/>	<rect x="799.5" y="138.6" class="st1" width="7.9" height="34"/>	<polygon class="st1" points="798.3,131.4 802.2,134.9 812.8,124.7 807.9,120  "/></g></svg>