<svg xmlns="http://www.w3.org/2000/svg" xmlns:xlink="http://www.w3.org/1999/xlink" id="Vrstva_1" x="0px" y="0px" viewBox="0 0 224 84" style="enable-background:new 0 0 224 84;" xml:space="preserve"><style type="text/css">	.st0{fill:#4DB74D;}</style><g>	<rect x="8.8" y="53.2" class="st0" width="208.1" height="5.4"/>	<g>		<g>			<path class="st0" d="M28.4,21.8c1.8,1.9,2.7,4.4,2.7,7.6v15.1h-5.5V30.1c0-3.7-2.1-6.1-5.5-6.1c-3.5,0-5.8,2.6-5.8,6.1v14.3H8.8    v-25H14v3.3c1.4-2.5,3.9-3.8,7.3-3.8C24.2,18.9,26.5,19.9,28.4,21.8z"/>			<path class="st0" d="M57.9,28.9v15.6h-5.5v-2.2c-1.9,1.8-4.2,2.7-6.8,2.7c-5.1,0-8.4-2.7-8.4-7.3c0-4.7,3.1-7.2,9.2-7.6l6-0.3    v-0.7c0-3.5-1.5-5.2-4.4-5.2s-4.5,1.9-4.5,4.3L38,28c0-2.3,0.9-4.4,2.7-6.2c1.8-1.8,4.3-2.7,7.2-2.7    C54.3,18.9,57.9,22.5,57.9,28.9z M52.4,33.9l-5.2,0.4c-3,0.1-4.4,1.2-4.4,3.2c0,1.9,1.3,2.8,3.8,2.8c3.7,0,5.9-1.9,5.9-5.5    L52.4,33.9L52.4,33.9z"/>			<path class="st0" d="M89.4,24.4c-4.3,0-7,2.7-7,6.4v13.6H77v-25h5.3v3.5c1.2-2.5,3.6-3.8,7.1-3.8V24.4z"/>			<path class="st0" d="M115.1,22.5c2.5,2.4,3.7,5.5,3.7,9.4s-1.2,7-3.7,9.4c-2.4,2.4-5.6,3.6-9.3,3.6c-3.8,0-6.9-1.2-9.4-3.6    c-2.4-2.4-3.7-5.5-3.7-9.4s1.2-7,3.7-9.4s5.6-3.6,9.4-3.6C109.5,18.9,112.6,20.1,115.1,22.5z M105.7,40.2c4.4,0,7.5-3.2,7.5-8.3    s-3.1-8.3-7.5-8.3s-7.5,3.2-7.5,8.3S101.3,40.2,105.7,40.2z"/>			<path class="st0" d="M136,44.4h-4.4l-10.8-25.1h6l7,16.8l6.9-16.8h6.1L136,44.4z"/>			<path class="st0" d="M156.3,8.3c1.4,1.3,1.4,3.5,0,4.8s-3.5,1.3-4.9,0c-1.3-1.4-1.3-3.5,0-4.8C152.8,6.9,154.9,6.9,156.3,8.3z     M156.6,44.4h-5.5v-25h5.5V44.4z"/>			<path class="st0" d="M184.1,21.8c1.8,1.9,2.7,4.4,2.7,7.6v15.1h-5.5V30.1c0-3.7-2.1-6.1-5.5-6.1c-3.5,0-5.8,2.6-5.8,6.1v14.3    h-5.5v-25h5.2v3.3c1.4-2.5,3.9-3.8,7.3-3.8C179.9,18.9,182.2,19.9,184.1,21.8z"/>			<path class="st0" d="M215.7,44.4h-5.2v-3.3c-1,2.1-3.5,3.8-7.1,3.8c-5.6,0-9.2-4-9.2-10.1V19.4h5.5V34c0,3.7,1.8,5.8,5.1,5.8    s5.4-2.7,5.4-6.1V19.4h5.5V44.4z"/>		</g>	</g>	<rect x="8.8" y="67.9" class="st0" width="26" height="5.4"/>	<g>		<path class="st0" d="M46,73.1c-0.7,0.7-1.6,1-2.6,1c-1.1,0-1.9-0.3-2.6-1s-1-1.5-1-2.6c0-1.1,0.3-1.9,1-2.6s1.6-1,2.6-1   c1.1,0,1.9,0.3,2.6,1s1,1.5,1,2.6C47,71.5,46.7,72.4,46,73.1z M43.3,68.6c-0.5,0-0.9,0.2-1.2,0.5c-0.3,0.3-0.5,0.8-0.5,1.4   c0,0.6,0.2,1.1,0.5,1.4s0.7,0.5,1.2,0.5s0.9-0.2,1.2-0.5c0.3-0.3,0.5-0.8,0.5-1.4c0-0.6-0.2-1.1-0.5-1.4   C44.3,68.7,43.8,68.6,43.3,68.6z"/>		<path class="st0" d="M58.4,73.9h-1.8v-0.7c-0.4,0.5-1.1,0.9-2,0.9c-1,0-1.8-0.3-2.4-1s-0.9-1.5-0.9-2.6c0-1.1,0.3-1.9,0.9-2.6   s1.4-1,2.4-1c0.9,0,1.5,0.2,1.9,0.7v-4.1h1.9V73.9z M53.2,70.5c0,1.2,0.7,1.9,1.7,1.9s1.6-0.7,1.6-1.8v-0.3c0-1.1-0.7-1.8-1.6-1.8   C53.8,68.6,53.2,69.3,53.2,70.5z"/>		<path class="st0" d="M66.4,73.9h-1.8v-0.7c-0.3,0.6-0.9,0.8-1.8,0.8c-1.6,0-2.5-1-2.5-2.7V67h1.9v3.9c0,0.9,0.4,1.3,1.1,1.3   s1.2-0.5,1.2-1.3V67h1.9C66.4,67,66.4,73.9,66.4,73.9z"/>		<path class="st0" d="M73.4,69.1l-1.9,0.1c0-0.6-0.3-0.8-0.9-0.8c-0.5,0-0.8,0.2-0.8,0.6c0,0.2,0.1,0.3,0.3,0.4   c0.2,0.1,0.6,0.2,1.1,0.3c1.6,0.4,2.3,0.9,2.3,2c0,1.4-1.1,2.3-2.8,2.3c-1.8,0-2.8-0.8-2.9-2.2l1.9-0.1c0,0.6,0.4,0.9,1,0.9   c0.5,0,0.9-0.2,0.9-0.6c0-0.4-0.2-0.5-1.3-0.8c-0.7-0.2-1-0.3-1.5-0.5c-0.6-0.3-0.9-0.8-0.9-1.6c0-1.3,1-2.2,2.8-2.2   C72.4,66.9,73.3,67.8,73.4,69.1z M71.5,66h-1.9l-1.5-2.3h1.6l0.9,1.1l0.9-1.1h1.6L71.5,66z"/>		<path class="st0" d="M81.5,71.1h-4.7c0,0.9,0.6,1.4,1.4,1.4c0.7,0,1.1-0.3,1.3-0.8l2,0.1c-0.1,0.7-0.5,1.2-1.1,1.6   c-0.6,0.4-1.3,0.6-2.1,0.6c-1.1,0-1.9-0.3-2.6-1s-1-1.5-1-2.6c0-1.1,0.3-2,1-2.6c0.7-0.7,1.5-1,2.5-1s1.8,0.3,2.4,0.9   c0.6,0.6,0.9,1.4,0.9,2.5L81.5,71.1L81.5,71.1z M76.7,69.8h2.8c0-0.9-0.5-1.4-1.3-1.4C77.3,68.4,76.8,68.9,76.7,69.8z"/>		<path class="st0" d="M86.3,73.9h-1.6l-3-6.9h2.1l1.6,4l1.6-4h2.1L86.3,73.9z"/>		<path class="st0" d="M96.7,69.7v4.2h-1.9v-3.8c0-0.9-0.5-1.4-1.2-1.4c-0.8,0-1.3,0.5-1.3,1.4v3.8h-1.9V67h1.8v0.7   c0.4-0.6,1-0.8,1.8-0.8C95.6,66.9,96.7,68,96.7,69.7z"/>		<path class="st0" d="M100.5,73.9h-1.9V67h1.9V73.9z M100.3,66h-1.5l1.1-2.5h2.2L100.3,66z"/>		<path class="st0" d="M112.9,69.7v4.2H111v-3.8c0-0.9-0.4-1.4-1.1-1.4c-0.7,0-1.1,0.4-1.2,1.1v4.1h-1.9v-3.8c0-0.9-0.4-1.4-1.1-1.4   c-0.8,0-1.2,0.5-1.2,1.4v3.8h-1.9V67h1.8v0.7c0.4-0.6,1-0.8,1.8-0.8c1,0,1.7,0.4,2.2,1.1c0.5-0.7,1.2-1.1,2.1-1.1   C111.9,66.9,112.9,68,112.9,69.7z"/>		<path class="st0" d="M122.3,68.3l-2.8,4h2.9v1.6h-5.2v-1.3l2.8-4h-2.8V67h5v1.3H122.3z"/>		<path class="st0" d="M130.6,73.9h-1.8v-0.7c-0.4,0.5-1.1,0.9-2,0.9c-1,0-1.8-0.3-2.4-1c-0.6-0.7-0.9-1.5-0.9-2.6   c0-1.1,0.3-1.9,0.9-2.6c0.6-0.7,1.4-1,2.4-1c0.9,0,1.5,0.2,1.9,0.7v-4.1h1.9L130.6,73.9L130.6,73.9z M125.4,70.5   c0,1.2,0.7,1.9,1.7,1.9s1.6-0.7,1.6-1.8v-0.3c0-1.1-0.7-1.8-1.6-1.8C126.1,68.6,125.4,69.3,125.4,70.5z"/>		<path class="st0" d="M136.3,68.8c-1.1,0-1.8,0.6-1.8,1.6v3.5h-1.9V67h1.9v0.8c0.4-0.6,1-0.9,1.9-0.9L136.3,68.8L136.3,68.8z"/>		<path class="st0" d="M143.2,69.7v4.2h-1.9v-0.6c-0.5,0.5-1,0.7-1.8,0.7c-1.4,0-2.3-0.7-2.3-2s0.9-2,2.8-2.1l1.2-0.1v-0.3   c0-0.7-0.3-1.1-0.9-1.1c-0.6,0-1,0.4-1,0.9l-1.9-0.1c0-0.6,0.3-1.2,0.8-1.7s1.2-0.8,2.1-0.8C142.2,66.9,143.2,67.9,143.2,69.7z    M141.2,71.1l-1,0.1c-0.7,0-1,0.3-1,0.7s0.3,0.6,0.8,0.6c0.7,0,1.2-0.4,1.2-1.1V71.1z"/>		<path class="st0" d="M148.5,73.9H147l-3-6.9h2.1l1.6,4l1.6-4h2.1L148.5,73.9z"/>		<path class="st0" d="M154.5,73.9h-1.9V67h1.9V73.9z M154.3,66h-1.5l1.1-2.5h2.2L154.3,66z"/>		<path class="st0" d="M165,69.7v4.2h-1.9v-0.6c-0.5,0.5-1,0.7-1.8,0.7c-1.4,0-2.3-0.7-2.3-2s0.9-2,2.8-2.1l1.2-0.1v-0.3   c0-0.7-0.3-1.1-0.9-1.1c-0.6,0-1,0.4-1,0.9l-1.9-0.1c0-0.6,0.3-1.2,0.8-1.7s1.2-0.8,2.1-0.8C164,66.9,165,67.9,165,69.7z    M163,71.1l-1,0.1c-0.7,0-1,0.3-1,0.7s0.3,0.6,0.8,0.6c0.7,0,1.2-0.4,1.2-1.1V71.1z"/>		<path class="st0" d="M176.2,69.7v4.2h-1.9v-3.8c0-0.9-0.5-1.4-1.2-1.4c-0.8,0-1.3,0.5-1.3,1.4v3.8h-1.9V67h1.8v0.7   c0.4-0.6,1-0.8,1.8-0.8C175.1,66.9,176.2,68,176.2,69.7z"/>		<path class="st0" d="M184.5,71.1h-4.7c0,0.9,0.6,1.4,1.4,1.4c0.7,0,1.1-0.3,1.3-0.8l2,0.1c-0.1,0.7-0.5,1.2-1.1,1.6   c-0.6,0.4-1.3,0.6-2.1,0.6c-1.1,0-1.9-0.3-2.6-1c-0.7-0.7-1-1.5-1-2.6c0-1.1,0.3-2,1-2.6c0.7-0.7,1.5-1,2.5-1s1.8,0.3,2.4,0.9   c0.6,0.6,0.9,1.4,0.9,2.5L184.5,71.1L184.5,71.1z M179.8,69.8h2.8c0-0.9-0.5-1.4-1.3-1.4C180.3,68.4,179.8,68.9,179.8,69.8z"/>		<path class="st0" d="M196.5,69.7v4.2h-1.9v-3.8c0-0.9-0.4-1.4-1.1-1.4c-0.7,0-1.1,0.4-1.2,1.1v4.1h-1.9v-3.8   c0-0.9-0.4-1.4-1.1-1.4c-0.8,0-1.2,0.5-1.2,1.4v3.8H186V67h1.8v0.7c0.4-0.6,1-0.8,1.8-0.8c1,0,1.7,0.4,2.2,1.1   c0.5-0.7,1.2-1.1,2.1-1.1C195.5,66.9,196.5,68,196.5,69.7z"/>		<path class="st0" d="M204.3,73.1c-0.7,0.7-1.6,1-2.6,1c-1.1,0-1.9-0.3-2.6-1c-0.7-0.7-1-1.5-1-2.6c0-1.1,0.3-1.9,1-2.6   s1.6-1,2.6-1c1.1,0,1.9,0.3,2.6,1c0.7,0.7,1,1.5,1,2.6C205.3,71.5,205,72.4,204.3,73.1z M201.7,68.6c-0.5,0-0.9,0.2-1.2,0.5   s-0.5,0.8-0.5,1.4c0,0.6,0.2,1.1,0.5,1.4s0.7,0.5,1.2,0.5s0.9-0.2,1.2-0.5s0.5-0.8,0.5-1.4c0-0.6-0.2-1.1-0.5-1.4   C202.6,68.7,202.2,68.6,201.7,68.6z"/>		<path class="st0" d="M212.2,67.6c0.6,0.5,1,1.1,1.1,1.9l-1.9,0.2c-0.1-0.7-0.6-1.2-1.4-1.2c-0.9,0-1.6,0.7-1.6,1.9   s0.6,1.9,1.6,1.9c0.8,0,1.3-0.4,1.4-1.1l1.9,0.2c-0.1,0.8-0.5,1.4-1.1,1.9S210.9,74,210,74c-1,0-1.9-0.3-2.5-1   c-0.7-0.7-1-1.5-1-2.6c0-1.1,0.3-2,1-2.6c0.7-0.6,1.5-1,2.5-1C210.9,66.9,211.6,67.1,212.2,67.6z"/>		<path class="st0" d="M216.9,64.8c0,0.3-0.1,0.6-0.3,0.8c-0.4,0.4-1.2,0.4-1.6,0c-0.7-0.7-0.1-2,0.8-2   C216.4,63.6,216.9,64.1,216.9,64.8z M216.7,73.9h-1.9V67h1.9V73.9z"/>	</g></g></svg>